<svg width="107" height="19" viewBox="0 0 107 19" fill="none" xmlns="http://www.w3.org/2000/svg">
<path d="M0.289062 18V0.9375H6.41797C8.61328 0.9375 10.2812 1.33984 11.4219 2.14453C12.5703 2.94922 13.1445 4.11719 13.1445 5.64844C13.1445 6.53125 12.9414 7.28516 12.5352 7.91016C12.1289 8.53516 11.5312 8.99609 10.7422 9.29297C11.6328 9.52734 12.3164 9.96484 12.793 10.6055C13.2695 11.2461 13.5078 12.0273 13.5078 12.9492C13.5078 14.6211 12.9766 15.8789 11.9141 16.7227C10.8594 17.5586 9.29297 17.9844 7.21484 18H0.289062ZM4.40234 10.7461V14.8359H7.09766C7.83984 14.8359 8.41016 14.668 8.80859 14.332C9.20703 13.9883 9.40625 13.5078 9.40625 12.8906C9.40625 11.4688 8.69922 10.7539 7.28516 10.7461H4.40234ZM4.40234 8.05078H6.54688C7.44531 8.04297 8.08594 7.87891 8.46875 7.55859C8.85156 7.23828 9.04297 6.76562 9.04297 6.14062C9.04297 5.42188 8.83594 4.90625 8.42188 4.59375C8.00781 4.27344 7.33984 4.11328 6.41797 4.11328H4.40234V8.05078ZM25.4727 14.8125H19.8359L18.8516 18H14.457L20.7148 0.9375H24.582L30.8867 18H26.4688L25.4727 14.8125ZM20.8203 11.6367H24.4883L22.6484 5.71875L20.8203 11.6367ZM40.9414 13.4648C40.9414 12.8633 40.7266 12.3945 40.2969 12.0586C39.875 11.7227 39.1289 11.375 38.0586 11.0156C36.9883 10.6562 36.1133 10.3086 35.4336 9.97266C33.2227 8.88672 32.1172 7.39453 32.1172 5.49609C32.1172 4.55078 32.3906 3.71875 32.9375 3C33.4922 2.27344 34.2734 1.71094 35.2812 1.3125C36.2891 0.90625 37.4219 0.703125 38.6797 0.703125C39.9062 0.703125 41.0039 0.921875 41.9727 1.35938C42.9492 1.79687 43.707 2.42188 44.2461 3.23438C44.7852 4.03906 45.0547 4.96094 45.0547 6H40.9531C40.9531 5.30469 40.7383 4.76562 40.3086 4.38281C39.8867 4 39.3125 3.80859 38.5859 3.80859C37.8516 3.80859 37.2695 3.97266 36.8398 4.30078C36.418 4.62109 36.207 5.03125 36.207 5.53125C36.207 5.96875 36.4414 6.36719 36.9102 6.72656C37.3789 7.07812 38.2031 7.44531 39.3828 7.82812C40.5625 8.20312 41.5312 8.60938 42.2891 9.04688C44.1328 10.1094 45.0547 11.5742 45.0547 13.4414C45.0547 14.9336 44.4922 16.1055 43.3672 16.957C42.2422 17.8086 40.6992 18.2344 38.7383 18.2344C37.3555 18.2344 36.1016 17.9883 34.9766 17.4961C33.8594 16.9961 33.0156 16.3164 32.4453 15.457C31.8828 14.5898 31.6016 13.5938 31.6016 12.4688H35.7266C35.7266 13.3828 35.9609 14.0586 36.4297 14.4961C36.9062 14.9258 37.6758 15.1406 38.7383 15.1406C39.418 15.1406 39.9531 14.9961 40.3438 14.707C40.7422 14.4102 40.9414 13.9961 40.9414 13.4648ZM57.7461 10.7695H51.2773V14.8359H58.918V18H47.1641V0.9375H58.9414V4.11328H51.2773V7.71094H57.7461V10.7695ZM70.2852 14.8125H64.6484L63.6641 18H59.2695L65.5273 0.9375H69.3945L75.6992 18H71.2812L70.2852 14.8125ZM65.6328 11.6367H69.3008L67.4609 5.71875L65.6328 11.6367ZM81.0664 12.2109V18H76.9531V0.9375H83.7617C85.0664 0.9375 86.2188 1.17969 87.2188 1.66406C88.2266 2.14063 89.0039 2.82422 89.5508 3.71484C90.1055 4.59766 90.3828 5.60156 90.3828 6.72656C90.3828 8.39062 89.7852 9.72266 88.5898 10.7227C87.4023 11.7148 85.7695 12.2109 83.6914 12.2109H81.0664ZM81.0664 9.03516H83.7617C84.5586 9.03516 85.1641 8.83594 85.5781 8.4375C86 8.03906 86.2109 7.47656 86.2109 6.75C86.2109 5.95312 85.9961 5.31641 85.5664 4.83984C85.1367 4.36328 84.5508 4.12109 83.8086 4.11328H81.0664V9.03516ZM96.6992 12.2109V18H92.5859V0.9375H99.3945C100.699 0.9375 101.852 1.17969 102.852 1.66406C103.859 2.14063 104.637 2.82422 105.184 3.71484C105.738 4.59766 106.016 5.60156 106.016 6.72656C106.016 8.39062 105.418 9.72266 104.223 10.7227C103.035 11.7148 101.402 12.2109 99.3242 12.2109H96.6992ZM96.6992 9.03516H99.3945C100.191 9.03516 100.797 8.83594 101.211 8.4375C101.633 8.03906 101.844 7.47656 101.844 6.75C101.844 5.95312 101.629 5.31641 101.199 4.83984C100.77 4.36328 100.184 4.12109 99.4414 4.11328H96.6992V9.03516Z" fill="#303133"/>
</svg>
