<svg width="148" height="32" viewBox="0 0 148 32" fill="none" xmlns="http://www.w3.org/2000/svg">
<path d="M43.5234 24V6.9375H49.5C51.5703 6.9375 53.1406 7.33594 54.2109 8.13281C55.2812 8.92188 55.8164 10.082 55.8164 11.6133C55.8164 12.4492 55.6016 13.1875 55.1719 13.8281C54.7422 14.4609 54.1445 14.9258 53.3789 15.2227C54.2539 15.4414 54.9414 15.8828 55.4414 16.5469C55.9492 17.2109 56.2031 18.0234 56.2031 18.9844C56.2031 20.625 55.6797 21.8672 54.6328 22.7109C53.5859 23.5547 52.0938 23.9844 50.1562 24H43.5234ZM47.0391 16.5703V21.1758H50.0508C50.8789 21.1758 51.5234 20.9805 51.9844 20.5898C52.4531 20.1914 52.6875 19.6445 52.6875 18.9492C52.6875 17.3867 51.8789 16.5938 50.2617 16.5703H47.0391ZM47.0391 14.0859H49.6406C51.4141 14.0547 52.3008 13.3477 52.3008 11.9648C52.3008 11.1914 52.0742 10.6367 51.6211 10.3008C51.1758 9.95703 50.4688 9.78516 49.5 9.78516H47.0391V14.0859ZM68.4844 20.4844H62.3203L61.1484 24H57.4102L63.7617 6.9375H67.0195L73.4062 24H69.668L68.4844 20.4844ZM63.2695 17.6367H67.5352L65.3906 11.25L63.2695 17.6367ZM83.8477 19.5234C83.8477 18.8594 83.6133 18.3516 83.1445 18C82.6758 17.6406 81.832 17.2656 80.6133 16.875C79.3945 16.4766 78.4297 16.0859 77.7188 15.7031C75.7812 14.6562 74.8125 13.2461 74.8125 11.4727C74.8125 10.5508 75.0703 9.73047 75.5859 9.01172C76.1094 8.28516 76.8555 7.71875 77.8242 7.3125C78.8008 6.90625 79.8945 6.70312 81.1055 6.70312C82.3242 6.70312 83.4102 6.92578 84.3633 7.37109C85.3164 7.80859 86.0547 8.42969 86.5781 9.23438C87.1094 10.0391 87.375 10.9531 87.375 11.9766H83.8594C83.8594 11.1953 83.6133 10.5898 83.1211 10.1602C82.6289 9.72266 81.9375 9.50391 81.0469 9.50391C80.1875 9.50391 79.5195 9.6875 79.043 10.0547C78.5664 10.4141 78.3281 10.8906 78.3281 11.4844C78.3281 12.0391 78.6055 12.5039 79.1602 12.8789C79.7227 13.2539 80.5469 13.6055 81.6328 13.9336C83.6328 14.5352 85.0898 15.2812 86.0039 16.1719C86.918 17.0625 87.375 18.1719 87.375 19.5C87.375 20.9766 86.8164 22.1367 85.6992 22.9805C84.582 23.8164 83.0781 24.2344 81.1875 24.2344C79.875 24.2344 78.6797 23.9961 77.6016 23.5195C76.5234 23.0352 75.6992 22.375 75.1289 21.5391C74.5664 20.7031 74.2852 19.7344 74.2852 18.6328H77.8125C77.8125 20.5156 78.9375 21.457 81.1875 21.457C82.0234 21.457 82.6758 21.2891 83.1445 20.9531C83.6133 20.6094 83.8477 20.1328 83.8477 19.5234ZM100.031 16.6055H93.2812V21.1758H101.203V24H89.7656V6.9375H101.18V9.78516H93.2812V13.8516H100.031V16.6055Z" fill="#35C7A6"/>
<path d="M112.898 20.4844H106.734L105.562 24H101.824L108.176 6.9375H111.434L117.82 24H114.082L112.898 20.4844ZM107.684 17.6367H111.949L109.805 11.25L107.684 17.6367ZM122.93 17.9883V24H119.414V6.9375H126.07C127.352 6.9375 128.477 7.17188 129.445 7.64062C130.422 8.10938 131.172 8.77734 131.695 9.64453C132.219 10.5039 132.48 11.4844 132.48 12.5859C132.48 14.2578 131.906 15.5781 130.758 16.5469C129.617 17.5078 128.035 17.9883 126.012 17.9883H122.93ZM122.93 15.1406H126.07C127 15.1406 127.707 14.9219 128.191 14.4844C128.684 14.0469 128.93 13.4219 128.93 12.6094C128.93 11.7734 128.684 11.0977 128.191 10.582C127.699 10.0664 127.02 9.80078 126.152 9.78516H122.93V15.1406ZM138.422 17.9883V24H134.906V6.9375H141.562C142.844 6.9375 143.969 7.17188 144.938 7.64062C145.914 8.10938 146.664 8.77734 147.188 9.64453C147.711 10.5039 147.973 11.4844 147.973 12.5859C147.973 14.2578 147.398 15.5781 146.25 16.5469C145.109 17.5078 143.527 17.9883 141.504 17.9883H138.422ZM138.422 15.1406H141.562C142.492 15.1406 143.199 14.9219 143.684 14.4844C144.176 14.0469 144.422 13.4219 144.422 12.6094C144.422 11.7734 144.176 11.0977 143.684 10.582C143.191 10.0664 142.512 9.80078 141.645 9.78516H138.422V15.1406Z" fill="#BCC0BF"/>
<g clip-path="url(#clip0)">
<path d="M8.13989 8.64172L5.36754 8.85591C4.5961 8.91553 3.90905 9.31984 3.48243 9.96515L0.285138 14.8009C-0.0384216 15.2902 -0.0898587 15.9027 0.147452 16.4392C0.384825 16.9756 0.872634 17.3495 1.45232 17.4393L3.99073 17.8325C4.58454 14.6812 6.00603 11.5378 8.13989 8.64172Z" fill="#3B82F6"/>
<path d="M14.1675 28.0093L14.5607 30.5477C14.6505 31.1273 15.0244 31.6152 15.5608 31.8525C15.784 31.9512 16.0203 32 16.2553 32C16.5855 32 16.9134 31.9038 17.1992 31.7148L22.035 28.5176C22.6803 28.0909 23.0846 27.4038 23.1441 26.6325L23.3583 23.8601C20.4622 25.994 17.3188 27.4155 14.1675 28.0093Z" fill="#3B82F6"/>
<path d="M13.2129 26.2498C13.301 26.2498 13.3896 26.2426 13.4781 26.2278C14.7983 26.0071 16.0708 25.6352 17.2847 25.1484L6.85161 14.7154C6.36487 15.9292 5.99299 17.2017 5.77225 18.522C5.68525 19.0424 5.85981 19.5726 6.23287 19.9457L12.0543 25.7672C12.3641 26.0769 12.7821 26.2498 13.2129 26.2498Z" fill="#F14336"/>
<path d="M29.4485 14.1876C32.0015 9.25174 32.0961 4.03578 31.9626 1.58955C31.9169 0.751369 31.2487 0.0831243 30.4105 0.0374372C30.0121 0.0156874 29.5401 0 29.008 0C26.2727 0 21.9445 0.414309 17.8124 2.5516C14.5286 4.25015 10.2225 7.99019 7.68207 12.9053C7.71207 12.9287 7.74138 12.9536 7.769 12.9812L19.0189 24.2311C19.0465 24.2587 19.0714 24.288 19.0948 24.318C24.0099 21.7775 27.7499 17.4714 29.4485 14.1876ZM18.606 6.76495C20.4336 4.9374 23.4074 4.93721 25.2351 6.76495C26.1204 7.65025 26.608 8.82743 26.608 10.0795C26.608 11.3315 26.1204 12.5087 25.2351 13.394C24.3214 14.3077 23.1208 14.7646 21.9206 14.7648C20.72 14.7648 19.52 14.308 18.606 13.394C17.7207 12.5087 17.2331 11.3315 17.2331 10.0795C17.2331 8.82743 17.7207 7.65025 18.606 6.76495Z" fill="#35C7A6"/>
<path d="M19.9318 12.0682C21.0283 13.1647 22.8127 13.1648 23.9093 12.0682C24.4405 11.5369 24.733 10.8307 24.733 10.0794C24.733 9.32819 24.4405 8.62194 23.9093 8.09075C23.361 7.54244 22.6408 7.26831 21.9205 7.26831C21.2003 7.26831 20.4801 7.54244 19.9318 8.09075C19.4007 8.62194 19.108 9.32819 19.108 10.0794C19.108 10.8307 19.4006 11.537 19.9318 12.0682Z" fill="#9FC4FF"/>
<path d="M0.956574 26.371C1.19651 26.371 1.43645 26.2795 1.61945 26.0963L4.68026 23.0355C5.04639 22.6694 5.04639 22.0758 4.68026 21.7097C4.3142 21.3436 3.72057 21.3436 3.35445 21.7097L0.293637 24.7705C-0.0724883 25.1367 -0.0724883 25.7302 0.293637 26.0963C0.476699 26.2794 0.716637 26.371 0.956574 26.371Z" fill="#FFD037"/>
<path d="M7.48534 24.5147C7.11928 24.1486 6.52565 24.1486 6.15953 24.5147L0.274838 30.3994C-0.0912871 30.7655 -0.0912871 31.3591 0.274838 31.7252C0.4579 31.9083 0.697838 31.9998 0.937775 31.9998C1.17771 31.9998 1.41765 31.9083 1.60065 31.7251L7.48528 25.8405C7.85146 25.4744 7.85146 24.8808 7.48534 24.5147Z" fill="#FFD037"/>
<path d="M8.96443 27.3198L5.90368 30.3806C5.53756 30.7467 5.53756 31.3403 5.90368 31.7064C6.08674 31.8895 6.32668 31.981 6.56656 31.981C6.80643 31.981 7.04643 31.8895 7.22943 31.7064L10.2902 28.6456C10.6564 28.2794 10.6564 27.6859 10.2902 27.3198C9.92418 26.9536 9.33055 26.9536 8.96443 27.3198Z" fill="#FFD037"/>
</g>
<defs>
<clipPath id="clip0">
<rect width="32" height="32" fill="white"/>
</clipPath>
</defs>
</svg>
