<svg width="32" height="32" viewBox="0 0 32 32" fill="none" xmlns="http://www.w3.org/2000/svg">
<g clip-path="url(#clip0)">
<path d="M8.13989 8.64172L5.36754 8.85591C4.5961 8.91553 3.90905 9.31984 3.48243 9.96515L0.285138 14.8009C-0.0384216 15.2902 -0.0898587 15.9027 0.147452 16.4392C0.384825 16.9756 0.872634 17.3495 1.45232 17.4393L3.99073 17.8325C4.58454 14.6812 6.00603 11.5378 8.13989 8.64172Z" fill="#3B82F6"/>
<path d="M14.1675 28.0093L14.5607 30.5477C14.6505 31.1273 15.0244 31.6152 15.5608 31.8525C15.784 31.9512 16.0203 32 16.2553 32C16.5855 32 16.9134 31.9038 17.1992 31.7148L22.035 28.5176C22.6803 28.0909 23.0846 27.4038 23.1441 26.6325L23.3583 23.8601C20.4622 25.994 17.3188 27.4155 14.1675 28.0093Z" fill="#3B82F6"/>
<path d="M13.2129 26.2498C13.301 26.2498 13.3896 26.2426 13.4781 26.2278C14.7983 26.0071 16.0708 25.6352 17.2847 25.1484L6.85161 14.7154C6.36487 15.9292 5.99299 17.2017 5.77225 18.522C5.68525 19.0424 5.85981 19.5726 6.23287 19.9457L12.0543 25.7672C12.3641 26.0769 12.7821 26.2498 13.2129 26.2498Z" fill="#F14336"/>
<path d="M29.4485 14.1876C32.0015 9.25174 32.0961 4.03578 31.9626 1.58955C31.9169 0.751369 31.2487 0.0831243 30.4105 0.0374372C30.0121 0.0156874 29.5401 0 29.008 0C26.2727 0 21.9445 0.414309 17.8124 2.5516C14.5286 4.25015 10.2225 7.99019 7.68207 12.9053C7.71207 12.9287 7.74138 12.9536 7.769 12.9812L19.0189 24.2311C19.0465 24.2587 19.0714 24.288 19.0948 24.318C24.0099 21.7775 27.7499 17.4714 29.4485 14.1876ZM18.606 6.76495C20.4336 4.9374 23.4074 4.93721 25.2351 6.76495C26.1204 7.65025 26.608 8.82743 26.608 10.0795C26.608 11.3315 26.1204 12.5087 25.2351 13.394C24.3214 14.3077 23.1208 14.7646 21.9206 14.7648C20.72 14.7648 19.52 14.308 18.606 13.394C17.7207 12.5087 17.2331 11.3315 17.2331 10.0795C17.2331 8.82743 17.7207 7.65025 18.606 6.76495Z" fill="#35C7A6"/>
<path d="M19.9318 12.0682C21.0283 13.1647 22.8127 13.1648 23.9093 12.0682C24.4405 11.5369 24.733 10.8307 24.733 10.0794C24.733 9.32819 24.4405 8.62194 23.9093 8.09075C23.361 7.54244 22.6408 7.26831 21.9205 7.26831C21.2003 7.26831 20.4801 7.54244 19.9318 8.09075C19.4007 8.62194 19.108 9.32819 19.108 10.0794C19.108 10.8307 19.4006 11.537 19.9318 12.0682Z" fill="#9FC4FF"/>
<path d="M0.956574 26.371C1.19651 26.371 1.43645 26.2795 1.61945 26.0963L4.68026 23.0355C5.04639 22.6694 5.04639 22.0758 4.68026 21.7097C4.3142 21.3436 3.72057 21.3436 3.35445 21.7097L0.293637 24.7705C-0.0724883 25.1367 -0.0724883 25.7302 0.293637 26.0963C0.476699 26.2794 0.716637 26.371 0.956574 26.371Z" fill="#FFD037"/>
<path d="M7.48534 24.5147C7.11928 24.1486 6.52565 24.1486 6.15953 24.5147L0.274838 30.3994C-0.0912871 30.7655 -0.0912871 31.3591 0.274838 31.7252C0.4579 31.9083 0.697838 31.9998 0.937775 31.9998C1.17771 31.9998 1.41765 31.9083 1.60065 31.7251L7.48528 25.8405C7.85146 25.4744 7.85146 24.8808 7.48534 24.5147Z" fill="#FFD037"/>
<path d="M8.96443 27.3198L5.90368 30.3806C5.53756 30.7467 5.53756 31.3403 5.90368 31.7064C6.08674 31.8895 6.32668 31.981 6.56656 31.981C6.80643 31.981 7.04643 31.8895 7.22943 31.7064L10.2902 28.6456C10.6564 28.2794 10.6564 27.6859 10.2902 27.3198C9.92418 26.9536 9.33055 26.9536 8.96443 27.3198Z" fill="#FFD037"/>
</g>
<defs>
<clipPath id="clip0">
<rect width="32" height="32" fill="white"/>
</clipPath>
</defs>
</svg>
